<svg width="20" height="20" viewBox="0 0 20 20" fill="none" xmlns="http://www.w3.org/2000/svg">
<path d="M14.125 14.2353H10.9167V13.2C13.5292 12.7294 15.5 10.4235 15.5 7.64706C15.5 4.54118 13.025 2 10 2C6.975 2 4.5 4.54118 4.5 7.64706C4.5 10.4706 6.47083 12.7765 9.08333 13.2V14.2353H5.875C5.37083 14.2353 4.95833 14.6588 4.95833 15.1765C4.95833 15.6941 5.37083 16.1176 5.875 16.1176H9.08333V17.0588C9.08333 17.5765 9.49583 18 10 18C10.5042 18 10.9167 17.5765 10.9167 17.0588V16.1176H14.125C14.6292 16.1176 15.0417 15.6941 15.0417 15.1765C15.0417 14.6588 14.6292 14.2353 14.125 14.2353ZM6.33333 7.64706C6.33333 5.57647 7.98333 3.88235 10 3.88235C12.0167 3.88235 13.6667 5.57647 13.6667 7.64706C13.6667 9.71765 12.0167 11.4118 10 11.4118C7.98333 11.4118 6.33333 9.71765 6.33333 7.64706Z" fill="#FF0099"/>
</svg>
